<svg width="172" height="180" viewBox="0 0 172 180" fill="none" xmlns="http://www.w3.org/2000/svg">
<path d="M161.531 121.523L111.274 169.504C97.3156 182.831 74.6847 182.831 60.7261 169.504L10.469 121.523C-3.48966 108.196 -3.48966 86.5901 10.469 73.2635L60.7261 25.2821C74.6847 11.9555 97.3156 11.9555 111.274 25.2821L161.531 73.2635C175.49 86.5901 175.49 108.197 161.531 121.523Z" fill="#00D1FF"/>
<path d="M149.369 71.4332C149.369 76.145 146.922 78.5009 142.029 78.5009H113.241V134.076C113.241 138.747 110.814 141.083 105.964 141.083C102.041 141.083 99.4472 140.861 98.1816 140.419C95.7346 139.492 94.512 137.378 94.512 134.076V78.5009H65.9127C60.9774 78.5009 58.5098 76.145 58.5098 71.4332C58.5098 65.7954 60.9774 62.9766 65.9127 62.9766H142.029C146.923 62.9766 149.369 65.7954 149.369 71.4332Z" fill="white"/>
<path d="M34.4405 134.076C34.4405 137.378 35.6635 139.491 38.1105 140.419C39.3757 140.861 41.9702 141.083 45.8926 141.083C50.7852 141.083 53.2323 138.747 53.2323 134.076V85.1616H34.4399V134.076H34.4405Z" fill="white"/>
<path d="M53.2333 69.9835C53.2333 65.3124 50.7863 62.9766 45.8936 62.9766C41.9281 62.9766 39.3547 63.1982 38.1747 63.6411C35.685 64.5674 34.4414 66.682 34.4414 69.9835V78.5009H53.2337L53.2333 69.9835Z" fill="white"/>
<path d="M131.704 45.0655V17.6978L103.038 17.6978V45.0655H131.704Z" fill="white"/>
<path d="M128.37 20.8794H106.371V41.8828H128.37V20.8794Z" fill="black"/>
<path d="M124.815 0H109.926V14.2145H124.815V0Z" fill="white"/>
<path d="M149.973 23.3193H135.084V37.5339H149.973V23.3193Z" fill="white"/>
<path d="M150.254 0.899902H135.365V15.1144H150.254V0.899902Z" fill="black"/>
</svg>
